<svg id="Layer_1" data-name="Layer 1" xmlns="http://www.w3.org/2000/svg" viewBox="0 0 366.92 139.16" aria-labelledby="massliveLogoTitle massliveLogoDesc" role="img"><title id="massliveLogoTitle">masslive.com logo</title><desc id="massliveLogoDesc">The MASSLIVE.com white lettering with a red speech bubble on a transparent background</desc><defs><style>.cls-1{fill:#fff;}.cls-2{fill:#ec2127;}</style></defs><rect class="cls-1" x="10.98" y="18.55" width="196" height="75"/><path class="cls-2" d="M0,105.48V13.71C0,6,5.52,0,13.93,0H204.69c8.23,0,14.53,4.75,14.53,13.49V85.37c0,6.34,2.54,20.31,17.6,25.49,15.26,5.27,25.75-5,30-9.18s6.22-1.78,6.07,1.63-2.37,16.3-15.11,26.68-34.39,11.26-48.62,6.07c-13.48-4.91-21.64-16.6-21.64-16.6h-173C5.29,119.46,0,113.33,0,105.48ZM70.48,80.9V32.36H58.76L47.85,53.77,36.94,32.36H25.22V80.9H37.15V57.66l6.88,12h7.64l6.88-12V80.9Zm49.44,0L102.26,32.36h-9.2L75.4,80.9H87.87l2.39-7.22h14.93l2.25,7.22ZM102.05,63.73H93.6l4.36-13ZM157.42,66c0-4.5-1-8.11-3.62-10.63-2-2-5.18-3.41-9.54-4l-5.86-.81a5.48,5.48,0,0,1-3.34-1.43,3.21,3.21,0,0,1-1-2.25c0-2.12,1.71-4.5,5.86-4.5,2.12,0,6.14-.21,9.21,2.86l7.5-7.5c-4.16-4.16-9.41-5.8-16.37-5.8-11,0-17.72,6.48-17.72,15.34,0,4.16,1.09,7.44,3.34,9.75s5.45,3.69,9.75,4.3l5.86.82a5.44,5.44,0,0,1,3.21,1.29,4.07,4.07,0,0,1,.95,2.87c0,2.79-2.25,4.36-6.95,4.36-3.89,0-8.32-.89-10.84-3.41l-7.64,7.63c4.91,5,11,6.41,18.41,6.41C148.9,81.31,157.42,75.92,157.42,66Zm40.43,0c0-4.5-1-8.11-3.62-10.63-2-2-5.18-3.41-9.54-4l-5.86-.81a5.48,5.48,0,0,1-3.34-1.43,3.21,3.21,0,0,1-1-2.25c0-2.12,1.71-4.5,5.86-4.5,2.12,0,6.14-.21,9.21,2.86l7.5-7.5c-4.16-4.16-9.41-5.8-16.36-5.8C169.69,32,163,38.43,163,47.29c0,4.16,1.09,7.44,3.34,9.75s5.45,3.69,9.75,4.3l5.86.82a5.44,5.44,0,0,1,3.21,1.29,4.07,4.07,0,0,1,1,2.87c0,2.79-2.25,4.36-7,4.36-3.89,0-8.32-.89-10.84-3.41l-7.64,7.63c4.91,5,11,6.41,18.41,6.41C189.33,81.31,197.85,75.92,197.85,66ZM271.26,80.9V76.26H246.44V32.36h-5.18V80.9Zm14.25,0V32.36h-5.18V80.9Zm43.7-48.54h-5.45L311.15,71.63,298.53,32.36h-5.45L309,80.9h4.23ZM366.92,80.9V76.26H342V58.75h21.27V54.11H342V37h25V32.36H336.78V80.9Z"/></svg>