<svg id="Layer_1" class="clbg" data-name="Layer 1" xmlns="http://www.w3.org/2000/svg" viewBox="0 0 316.9 128.85" aria-labelledby="njLogoTitle njLogoDesc" role="img"><title id="njLogoTitle">nj.com logo</title><desc id="njLogoDesc">The NJ.com grey and green lettering on a transparent background</desc><defs><style>.clbg{background:#4D4E4E;}.cls-1{fill:#bcd032;}.cls-2{fill:#FFF;}</style></defs><path class="cls-1" d="M202.79,45.2s1.78-.26,4.89-.57,7.54-.8,12.86-1.06,11.55-.78,18.2-.87l20.86-.38,20.85.38c6.66.11,12.87.64,18.2.88s9.76.82,12.86,1.06,4.89.55,4.89.56v.33l-56.8.17-56.81-.17Z"/><path class="cls-2" d="M106,117.67a15.08,15.08,0,0,1-11.1,4.51A15.4,15.4,0,0,1,79.5,106.81V49.51q0-12.45-5.85-17.2T57.79,27.56a29.74,29.74,0,0,0-8.65,1.22A35.76,35.76,0,0,0,41.7,32a34.07,34.07,0,0,0-6.1,4.39A33.34,33.34,0,0,0,31,41.46v65.35a14.84,14.84,0,0,1-4.51,10.86,15.08,15.08,0,0,1-11.1,4.51,14.78,14.78,0,0,1-10.85-4.51A14.8,14.8,0,0,1,0,106.81V16.58A14.4,14.4,0,0,1,4.51,5.85,15.63,15.63,0,0,1,15.85,1.47,14.61,14.61,0,0,1,26.58,5.85,14.6,14.6,0,0,1,31,16.58v1.71a55.09,55.09,0,0,1,7-6.7,47.16,47.16,0,0,1,9.27-5.86A60,60,0,0,1,58.65,1.59,54.52,54.52,0,0,1,72.18,0q19.51,0,28.9,10.12t9.39,27.44v69.25A14.8,14.8,0,0,1,106,117.67Z"/><path class="cls-2" d="M191.51,79.75q0,20.23-10.36,32.44t-31.59,12.19a85.69,85.69,0,0,1-11.82-.73,30,30,0,0,1-8.78-2.44,12.91,12.91,0,0,1-5.37-4.51,12,12,0,0,1-1.83-6.71A12.28,12.28,0,0,1,134,97.56a12.14,12.14,0,0,1,4.51.73,17.7,17.7,0,0,0,6,.73A15.47,15.47,0,0,0,156,94.38q4.5-4.63,4.51-14.63V15.12a14.39,14.39,0,0,1,4.51-10.73A15.6,15.6,0,0,1,176.39,0a14.58,14.58,0,0,1,10.73,4.39,14.58,14.58,0,0,1,4.39,10.73Z"/><path class="cls-2" d="M228.68,24.9a2.66,2.66,0,0,1-1,2.08,11,11,0,0,1-3.26,1.75,13.42,13.42,0,0,1-4.52.69,14.06,14.06,0,0,1-5.23-.94,11.73,11.73,0,0,1-4.12-2.67,12.33,12.33,0,0,1-2.69-4.09,13.68,13.68,0,0,1-1-5.2,13.55,13.55,0,0,1,1-5.16,12.44,12.44,0,0,1,2.69-4.09,12,12,0,0,1,4.12-2.67,14.27,14.27,0,0,1,5.23-.94,14.87,14.87,0,0,1,2.77.26,14.08,14.08,0,0,1,2.47.68,9,9,0,0,1,2,1A4.1,4.1,0,0,1,228.32,7a2.32,2.32,0,0,1,.31,1.16,2.37,2.37,0,0,1-1,2,3.52,3.52,0,0,1-2.06.71,3.32,3.32,0,0,1-1.78-.51,6.59,6.59,0,0,0-1.72-.76,7,7,0,0,0-1.88-.26,6.86,6.86,0,0,0-2.69.51,6,6,0,0,0-2.11,1.45A6.31,6.31,0,0,0,214,13.62a8.44,8.44,0,0,0-.48,2.9,8.4,8.4,0,0,0,.48,2.92,6.77,6.77,0,0,0,1.38,2.26,5.91,5.91,0,0,0,2.11,1.47,6.86,6.86,0,0,0,2.69.51,6.73,6.73,0,0,0,3.66-1.07,3.17,3.17,0,0,1,1.72-.51,3.34,3.34,0,0,1,2.13.77A2.43,2.43,0,0,1,228.68,24.9Z"/><path class="cls-2" d="M258.25,16.52a13.87,13.87,0,0,1-.89,5,12.15,12.15,0,0,1-2.56,4.1,12.46,12.46,0,0,1-4.1,2.79,13.74,13.74,0,0,1-5.46,1,13.52,13.52,0,0,1-5.43-1,12.43,12.43,0,0,1-4.07-2.79,12.15,12.15,0,0,1-2.56-4.1,13.65,13.65,0,0,1-.89-5,13.59,13.59,0,0,1,.89-4.93,12.1,12.1,0,0,1,2.56-4.09,12.28,12.28,0,0,1,4.07-2.79,13.35,13.35,0,0,1,5.43-1,13.56,13.56,0,0,1,5.46,1,12.31,12.31,0,0,1,4.1,2.79,12.1,12.1,0,0,1,2.56,4.09A13.81,13.81,0,0,1,258.25,16.52Zm-6.76,0a8.47,8.47,0,0,0-.43-2.72,6.72,6.72,0,0,0-1.21-2.26A5.75,5.75,0,0,0,247.92,10a5.91,5.91,0,0,0-2.68-.59,5.65,5.65,0,0,0-2.64.59,6,6,0,0,0-1.94,1.55,6.38,6.38,0,0,0-1.21,2.26,9,9,0,0,0-.41,2.72,9.28,9.28,0,0,0,.41,2.77,6.56,6.56,0,0,0,1.21,2.26,6.13,6.13,0,0,0,1.94,1.55,5.65,5.65,0,0,0,2.64.58,5.68,5.68,0,0,0,4.61-2.13,6.91,6.91,0,0,0,1.21-2.26A8.69,8.69,0,0,0,251.49,16.52Z"/><path class="cls-2" d="M298.77,28.18a3.18,3.18,0,0,1-2.34.94,3.19,3.19,0,0,1-3.18-3.21V13.31a4.45,4.45,0,0,0-.84-2.81,3.37,3.37,0,0,0-2.84-1.1,5.26,5.26,0,0,0-3.06.92,8,8,0,0,0-2.05,1.93V25.91a3.11,3.11,0,0,1-.93,2.27,3.18,3.18,0,0,1-2.34.94,3.07,3.07,0,0,1-2.25-.94,3.11,3.11,0,0,1-.93-2.27V13.31a4.45,4.45,0,0,0-.84-2.81,3.34,3.34,0,0,0-2.82-1.1,5.2,5.2,0,0,0-3,.94,8.29,8.29,0,0,0-2.06,2V25.91a3.08,3.08,0,0,1-.94,2.27,3.18,3.18,0,0,1-2.31.94,3.11,3.11,0,0,1-2.26-.94,3.08,3.08,0,0,1-.94-2.27V7.12a3,3,0,0,1,.94-2.24A3.24,3.24,0,0,1,266.12,4a3.11,3.11,0,0,1,3.15,3.15v.35a5.89,5.89,0,0,1,1.14-1.22A11.78,11.78,0,0,1,272.27,5a12,12,0,0,1,2.33-1,9.4,9.4,0,0,1,2.69-.38,7.57,7.57,0,0,1,4.41,1.17,6.34,6.34,0,0,1,2.38,3.3,8.55,8.55,0,0,1,1.37-1.62,11,11,0,0,1,1.95-1.45,11.39,11.39,0,0,1,2.39-1,9.7,9.7,0,0,1,2.71-.38,7.4,7.4,0,0,1,5.3,1.81q1.9,1.8,1.91,5.61V25.91A3.08,3.08,0,0,1,298.77,28.18Z"/><path class="cls-2" d="M227.34,60A1.35,1.35,0,0,1,226,61.35h-6.78V82.14a1.46,1.46,0,0,1-.45,1.08,1.54,1.54,0,0,1-1.13.45,1.52,1.52,0,0,1-1.1-.45,1.46,1.46,0,0,1-.45-1.08V61.35h-6.74a1.3,1.3,0,0,1-1-.39,1.34,1.34,0,0,1-.39-1,1.25,1.25,0,0,1,.39-.95,1.3,1.3,0,0,1,1-.39H226a1.3,1.3,0,0,1,.95.39A1.39,1.39,0,0,1,227.34,60Z"/><path class="cls-2" d="M236,66.46a1.46,1.46,0,0,1-.42,1.06,1.55,1.55,0,0,1-1,.47,6.31,6.31,0,0,0-2.63.72,5.8,5.8,0,0,0-2.14,2V82.29a1.3,1.3,0,0,1-.42,1,1.39,1.39,0,0,1-1,.41h0a1.52,1.52,0,0,1-1-.43,1.28,1.28,0,0,1-.39-.95V66.57a1.26,1.26,0,0,1,.42-.93,1.42,1.42,0,0,1,1.05-.41,1.31,1.31,0,0,1,.94.41,1.26,1.26,0,0,1,.42.93v1.79c.27-.35.58-.72.93-1.1a8.27,8.27,0,0,1,1.16-1.05,6.24,6.24,0,0,1,1.36-.76,3.85,3.85,0,0,1,1.5-.29,1.21,1.21,0,0,1,.9.37A1.24,1.24,0,0,1,236,66.46Z"/><path class="cls-2" d="M253.78,83.26a1.42,1.42,0,0,1-1,.41,1.36,1.36,0,0,1-1-.41,1.3,1.3,0,0,1-.42-1V80.91A9.33,9.33,0,0,1,248.65,83a7.73,7.73,0,0,1-3.68.89,5.93,5.93,0,0,1-4.27-1.39,5.83,5.83,0,0,1-1.44-4.35V66.57a1.28,1.28,0,0,1,.41-.93,1.45,1.45,0,0,1,1.06-.41,1.32,1.32,0,0,1,.94.41,1.26,1.26,0,0,1,.42.93V77.3a6.12,6.12,0,0,0,.27,2,2.89,2.89,0,0,0,.82,1.27,3,3,0,0,0,1.27.67,6.4,6.4,0,0,0,1.63.19,6.22,6.22,0,0,0,3.07-.82,6.87,6.87,0,0,0,2.21-1.9V66.57a1.26,1.26,0,0,1,.42-.93,1.46,1.46,0,0,1,1.06-.41,1.32,1.32,0,0,1,.94.41,1.28,1.28,0,0,1,.41.93V82.29A1.32,1.32,0,0,1,253.78,83.26Z"/><path class="cls-2" d="M276.22,73.83a1.5,1.5,0,0,1-.45,1.08,1.47,1.47,0,0,1-1.08.45h-13a7.14,7.14,0,0,0,.56,2.4,6.23,6.23,0,0,0,3.32,3.32,6.38,6.38,0,0,0,2.6.5,7.77,7.77,0,0,0,2.54-.41A7.47,7.47,0,0,0,273,79.91a1.13,1.13,0,0,1,.63-.19,1.18,1.18,0,0,1,.75.32,1.07,1.07,0,0,1,.37.84,1,1,0,0,1-.41.89,9.16,9.16,0,0,1-2.94,1.6,11.22,11.22,0,0,1-3.5.52,9.55,9.55,0,0,1-3.69-.69,8.34,8.34,0,0,1-2.89-1.93,9,9,0,0,1-1.9-3,10.4,10.4,0,0,1-.69-3.86,10,10,0,0,1,.67-3.67,9.24,9.24,0,0,1,1.85-3,8.82,8.82,0,0,1,2.79-2,8.38,8.38,0,0,1,3.56-.75,8.77,8.77,0,0,1,3.06.51,7.65,7.65,0,0,1,2.44,1.43,8.69,8.69,0,0,1,1.78,2.2A9.48,9.48,0,0,1,276,72c.05.28.11.57.17.9A5.21,5.21,0,0,1,276.22,73.83Zm-2.72-.52a6.45,6.45,0,0,0-.36-2.07,6.13,6.13,0,0,0-1.08-1.93,5.52,5.52,0,0,0-1.84-1.44,5.92,5.92,0,0,0-2.65-.56,5.46,5.46,0,0,0-2.53.56,5.72,5.72,0,0,0-1.81,1.42,6.58,6.58,0,0,0-1.12,1.92,7,7,0,0,0-.43,2.1Z"/><path class="cls-2" d="M221.24,117.58a6.76,6.76,0,0,1-1.7,2.48,7,7,0,0,1-2.51,1.45,9.7,9.7,0,0,1-3.11.49,11.64,11.64,0,0,1-1.58-.11,7.58,7.58,0,0,1-1.49-.38,7.49,7.49,0,0,1-1.4-.67,7.25,7.25,0,0,1-1.27-1,1.22,1.22,0,0,1-.45-1,1.43,1.43,0,0,1,.42-1,1.26,1.26,0,0,1,1-.45,1.23,1.23,0,0,1,.85.3,7.33,7.33,0,0,0,1.66,1.06,5.38,5.38,0,0,0,5.76-1,5.35,5.35,0,0,0,1.34-3.79V98a1.38,1.38,0,0,1,.45-1.07,1.65,1.65,0,0,1,1.17-.42,1.49,1.49,0,0,1,1.07.42,1.45,1.45,0,0,1,.44,1.07v16.09A9.26,9.26,0,0,1,221.24,117.58Z"/><path class="cls-2" d="M242.83,111.94a1.5,1.5,0,0,1-.44,1.08,1.54,1.54,0,0,1-1.09.45h-13a7.25,7.25,0,0,0,.56,2.4,6.09,6.09,0,0,0,1.32,2,6.22,6.22,0,0,0,2,1.34,6.32,6.32,0,0,0,2.6.51,8.09,8.09,0,0,0,2.54-.41,7.72,7.72,0,0,0,2.31-1.27,1.1,1.1,0,0,1,.63-.18,1.12,1.12,0,0,1,.74.31,1,1,0,0,1,.38.84,1,1,0,0,1-.41.89,9.3,9.3,0,0,1-2.94,1.61,11.58,11.58,0,0,1-3.51.52,9.53,9.53,0,0,1-3.68-.69,8.54,8.54,0,0,1-2.9-1.94,9.14,9.14,0,0,1-1.89-3,10.32,10.32,0,0,1-.69-3.86,10,10,0,0,1,.67-3.67,9.34,9.34,0,0,1,1.84-3,8.63,8.63,0,0,1,2.8-2,8.48,8.48,0,0,1,3.55-.74,9,9,0,0,1,3.06.5,7.73,7.73,0,0,1,2.44,1.43,8.9,8.9,0,0,1,1.79,2.2,9.87,9.87,0,0,1,1.06,2.83c.05.28.11.58.17.9A5.23,5.23,0,0,1,242.83,111.94Zm-2.72-.52a6.71,6.71,0,0,0-.35-2.07,6,6,0,0,0-1.09-1.94,5.58,5.58,0,0,0-1.83-1.43,5.78,5.78,0,0,0-2.65-.56,5.4,5.4,0,0,0-2.54.56,5.76,5.76,0,0,0-1.8,1.41,6.17,6.17,0,0,0-1.12,1.92,7,7,0,0,0-.43,2.11Z"/><path class="cls-2" d="M256.43,104.56a1.42,1.42,0,0,1-.41,1.06,1.51,1.51,0,0,1-1,.47,6.42,6.42,0,0,0-2.63.72,6,6,0,0,0-2.14,2V120.4a1.29,1.29,0,0,1-.42,1,1.35,1.35,0,0,1-1,.41h0a1.38,1.38,0,0,1-1-.43,1.25,1.25,0,0,1-.4-.94V104.67a1.28,1.28,0,0,1,.41-.93,1.48,1.48,0,0,1,1.06-.41,1.31,1.31,0,0,1,.94.41,1.26,1.26,0,0,1,.42.93v1.79c.27-.35.58-.71.93-1.1a8.12,8.12,0,0,1,1.15-1,6.13,6.13,0,0,1,1.37-.76,3.88,3.88,0,0,1,1.51-.3,1.22,1.22,0,0,1,.89.37A1.3,1.3,0,0,1,256.43,104.56Z"/><path class="cls-2" d="M272.45,116.56a5.14,5.14,0,0,1-.45,2.12,4.66,4.66,0,0,1-1.33,1.73,6.72,6.72,0,0,1-2.23,1.16,10.11,10.11,0,0,1-3.07.43,13.92,13.92,0,0,1-1.86-.13,11.29,11.29,0,0,1-1.74-.41,11.54,11.54,0,0,1-1.62-.71,8.59,8.59,0,0,1-1.48-1.06,1.05,1.05,0,0,1-.41-.86,1.11,1.11,0,0,1,.37-.86,1.29,1.29,0,0,1,.89-.33,1.48,1.48,0,0,1,.83.26,8.36,8.36,0,0,0,2.3,1.3,7.74,7.74,0,0,0,2.84.52,5,5,0,0,0,3.16-.87,2.73,2.73,0,0,0,1.08-2.22,1.93,1.93,0,0,0-.82-1.66,7.24,7.24,0,0,0-2.07-1c-.83-.24-1.73-.48-2.68-.69a13.17,13.17,0,0,1-2.68-.89,5.77,5.77,0,0,1-2.07-1.53,3.86,3.86,0,0,1-.82-2.62,4.64,4.64,0,0,1,.45-2,4.71,4.71,0,0,1,1.31-1.66,6.43,6.43,0,0,1,2.1-1.11,9.2,9.2,0,0,1,2.85-.41,10.76,10.76,0,0,1,1.83.15,10.38,10.38,0,0,1,1.62.41,6.77,6.77,0,0,1,1.41.67,13.51,13.51,0,0,1,1.25.89,1.11,1.11,0,0,1,0,1.62,1.16,1.16,0,0,1-1.53.06,7.4,7.4,0,0,0-2.05-1.1,7.5,7.5,0,0,0-2.57-.43,4.68,4.68,0,0,0-2.93.82,2.46,2.46,0,0,0-1.06,2,1.66,1.66,0,0,0,.82,1.49,7.85,7.85,0,0,0,2.07.88c.83.23,1.72.46,2.68.67a12.81,12.81,0,0,1,2.68.91,5.93,5.93,0,0,1,2.07,1.62A4.3,4.3,0,0,1,272.45,116.56Z"/><path class="cls-2" d="M293.05,111.94a1.46,1.46,0,0,1-.44,1.08,1.52,1.52,0,0,1-1.09.45h-13a7.25,7.25,0,0,0,.56,2.4,6.25,6.25,0,0,0,1.32,2,6.44,6.44,0,0,0,2,1.34,6.36,6.36,0,0,0,2.61.51,8.07,8.07,0,0,0,2.53-.41,7.72,7.72,0,0,0,2.31-1.27,1.12,1.12,0,0,1,.63-.18,1.16,1.16,0,0,1,.75.31,1.16,1.16,0,0,1,0,1.73,9.3,9.3,0,0,1-2.94,1.61,11.54,11.54,0,0,1-3.51.52,9.61,9.61,0,0,1-3.68-.69,8.41,8.41,0,0,1-2.89-1.94,9,9,0,0,1-1.9-3,10.76,10.76,0,0,1,0-7.53,9.34,9.34,0,0,1,1.84-3,8.74,8.74,0,0,1,2.8-2,8.48,8.48,0,0,1,3.55-.74,9,9,0,0,1,3.06.5,7.73,7.73,0,0,1,2.44,1.43,8.68,8.68,0,0,1,1.79,2.2,9.58,9.58,0,0,1,1.06,2.83c0,.28.11.58.17.9A5.23,5.23,0,0,1,293.05,111.94Zm-2.72-.52a6.71,6.71,0,0,0-.35-2.07,6,6,0,0,0-1.08-1.94,5.62,5.62,0,0,0-4.49-2,5.33,5.33,0,0,0-2.53.56,5.92,5.92,0,0,0-1.81,1.41,6.17,6.17,0,0,0-1.12,1.92,7,7,0,0,0-.43,2.11Z"/><path class="cls-2" d="M312,104.71a1,1,0,0,1-.12.48l-8.34,20a5.86,5.86,0,0,1-2.18,2.79,5.66,5.66,0,0,1-3.11.86,6.85,6.85,0,0,1-.77,0,3,3,0,0,1-.7-.14,1.06,1.06,0,0,1-.52-.38,1.08,1.08,0,0,1-.21-.7,1.21,1.21,0,0,1,.37-.92,1.24,1.24,0,0,1,.86-.35l.49,0,.44,0a2.45,2.45,0,0,0,1.49-.38,3.56,3.56,0,0,0,1.16-1.53l1.19-2.71-6.86-16.55a1.09,1.09,0,0,1-.11-.48,1.38,1.38,0,0,1,.39-.95,1.32,1.32,0,0,1,1-.43,1.31,1.31,0,0,1,.76.23,1.35,1.35,0,0,1,.54.63l5.74,14.12,5.7-14.12a1.29,1.29,0,0,1,.54-.63,1.33,1.33,0,0,1,.76-.23,1.44,1.44,0,0,1,1.05.41A1.34,1.34,0,0,1,312,104.71Z"/><path class="cls-2" d="M316.9,119.87a2,2,0,0,1-.6,1.46,2,2,0,0,1-1.45.59,2,2,0,0,1-2.05-2,2,2,0,0,1,2.05-2,2,2,0,0,1,2,2Z"/><path class="cls-1" d="M176.22,9.05a8.84,8.84,0,0,1,6.44,2.58,8.65,8.65,0,0,1,2.63,6.44,8.84,8.84,0,0,1-2.63,6.49,9.11,9.11,0,0,1-12.83,0,8.74,8.74,0,0,1-2.69-6.49,8.55,8.55,0,0,1,2.69-6.44A8.91,8.91,0,0,1,176.22,9.05Z"/></svg>