<?xml version="1.0" encoding="UTF-8"?>
<svg width="567px" height="100px" viewBox="0 0 567 100" version="1.1" xmlns="http://www.w3.org/2000/svg" xmlns:xlink="http://www.w3.org/1999/xlink">
    <!-- Generator: Sketch 50.2 (55047) - http://www.bohemiancoding.com/sketch -->
    <title>lehighvalley_logo</title>
    <desc>Created with Sketch.</desc>
    <defs>
        <path d="M4.976,5.664 C1.825,9.252 0.324,14.478 0.324,20.828 L0.324,34.37 C0.324,40.722 1.824,45.948 4.976,49.536 C7.941,52.912 12.391,55.047 18.948,55.047 C25.357,55.047 29.759,53.006 32.726,49.762 C35.885,46.308 37.458,41.275 37.566,35.119 L34.551,32.389 L37.566,29.403 L37.566,20.828 C37.566,14.478 36.067,9.252 32.916,5.664 C29.952,2.289 25.502,0.154 18.948,0.154 C12.391,0.154 7.941,2.288 4.976,5.664 Z M23.61,32.932 L20.749,36.086 C20.749,37.707 20.633,38.95 18.948,40.098 C18.512,40.098 18.072,40.092 17.817,39.735 C17.258,38.949 17.142,37.706 17.142,36.086 L17.142,32.932 L23.61,32.932 Z" id="path-1"></path>
        <path d="M0,94.268 L91.891,94.268 L91.891,0.15 L0,0.15 M30.889,54.37 L30.889,40.828 C30.889,30.712 34.87,23.684 45.948,23.684 C57.022,23.684 61.002,30.712 61.002,40.828 L61.002,49.403 L40.578,49.403 L40.578,56.086 C40.578,61.4 42.484,63.629 45.948,63.629 C49.41,63.629 51.313,61.4 51.313,56.086 L51.313,55.057 L61.002,55.057 C60.831,64.83 56.766,71.516 45.948,71.516 C34.87,71.516 30.889,64.488 30.889,54.37 M40.578,39.112 L40.578,41.512 L51.313,41.512 L51.313,39.112 C51.313,33.8 49.41,31.569 45.948,31.569 C42.484,31.569 40.578,33.8 40.578,39.112" id="path-3"></path>
        <path d="M0.918,17.828 L0.918,31.37 C0.918,41.488 4.903,48.516 15.98,48.516 C26.798,48.516 30.866,41.83 31.034,32.057 L21.345,32.057 L21.345,33.086 C21.345,38.4 19.44,40.629 15.98,40.629 C12.514,40.629 10.611,38.4 10.611,33.086 L10.611,26.403 L31.034,26.403 L31.034,17.828 C31.034,7.712 27.057,0.684 15.98,0.684 C4.903,0.684 0.918,7.712 0.918,17.828 Z M10.611,16.112 C10.611,10.8 12.514,8.569 15.98,8.569 C19.44,8.569 21.345,10.8 21.345,16.112 L21.345,18.512 L10.611,18.512 L10.611,16.112 Z" id="path-5"></path>
        <path d="M30.502,3.396 C27.451,1.129 24.034,0.154 20.211,0.154 C13.326,0.154 8.809,1.821 5.86,5.146 C3.083,8.277 1.592,13.152 1.592,20.657 C1.592,30.242 2.72,34.135 5.616,37.104 C5.123,37.579 4.66,38.084 4.242,38.612 C2.801,40.437 1.936,42.522 1.936,44.659 C1.936,46.838 2.564,48.608 3.604,50.079 C3.272,50.379 2.959,50.697 2.665,51.031 C1.03,52.893 0.031,55.25 0.031,57.861 C0.031,59.824 0.616,61.56 1.72,63.064 C2.702,64.404 4.132,65.577 6.045,66.493 C9.045,67.929 13.431,68.761 19.001,68.761 C26.221,68.761 31.885,67.709 35.707,65.602 C37.929,64.378 39.605,62.8 40.743,60.893 C41.855,59.033 42.471,56.84 42.471,54.26 C42.471,48.539 40.1,45.224 36.833,43.156 C34.476,41.662 31.462,40.924 28.362,40.538 C30.226,39.632 31.789,38.379 33.08,36.754 C35.727,33.423 37.277,28.242 37.277,20.314 C37.277,18.933 37.115,17.027 38.331,15.139 L42.471,11.656 L42.471,3.683 L38.907,0.154 C34.852,0.154 32.764,0.897 30.502,3.396 Z M17.891,21.256 C17.891,18.371 18.06,16.47 18.642,15.307 C20.423,16.283 20.455,18.239 20.455,21.256 C20.455,24.272 20.423,26.228 19.864,27.388 C18.06,26.041 17.891,24.14 17.891,21.256 Z" id="path-7"></path>
        <path d="M0.707,94.559 L97.795,94.559 L97.795,0.148 L0.707,0.148 M66.907,23.683 L66.907,31.656 C66.384,31.57 65.867,31.57 65.346,31.57 C63.617,31.57 62.057,31.912 60.675,33.027 C61.369,35.426 61.713,38.426 61.713,40.314 C61.713,54.369 56.864,58.829 47.001,58.829 L43.883,58.829 C42.85,59.086 41.981,59.855 41.981,60.972 C41.981,67.23 66.907,57.976 66.907,74.26 C66.907,82.144 59.463,85.232 47.001,85.232 C37.309,85.232 31.595,82.662 31.595,77.861 C31.595,74.26 34.539,71.427 37.915,70.658 L37.915,70.486 C35.318,69.458 33.5,67.66 33.5,64.659 C33.5,61.49 36.789,58.657 39.388,57.201 C34.539,53.857 33.156,51.456 33.156,40.657 C33.156,27.967 37.309,23.683 48.211,23.683 C52.366,23.683 55.914,25.139 58.945,28.654 C61.54,24.884 62.837,23.683 66.907,23.683 M42.327,41.256 C42.327,49.058 44.06,50.941 47.174,50.941 C50.981,50.941 52.019,49.058 52.019,41.256 C52.019,33.456 50.981,31.57 47.174,31.57 C44.06,31.57 42.327,33.456 42.327,41.256 M41.81,74.945 C41.81,77.345 43.539,78.373 50.028,78.373 C56.521,78.373 58.251,77.345 58.251,74.945 C58.251,72.546 56.521,71.516 50.028,71.516 C43.539,71.516 41.81,72.546 41.81,74.945" id="path-9"></path>
        <path d="M4.095,0.387 L0.53,3.917 L0.53,65.809 L4.095,69.339 L13.789,69.339 L17.353,65.809 L17.353,31.391 C18.239,30.746 19.08,30.251 19.916,30.063 L19.916,65.809 L23.48,69.339 L33.172,69.339 L36.736,65.809 L36.736,28.518 C36.736,24.514 35.596,21.354 33.745,19.151 C31.711,16.728 28.781,15.303 25.036,15.303 C21.732,15.303 19.428,15.848 17.353,16.917 L17.353,3.917 L13.789,0.387 L4.095,0.387 Z" id="path-11"></path>
        <path d="M0.206,94.559 L91.06,94.559 L91.06,0.147 L0.206,0.147 L0.206,94.559 Z M31.095,9.917 L40.789,9.917 L40.789,29.976 C44.336,26.888 46.41,24.833 52.036,24.833 C57.145,24.833 60.172,28.52 60.172,34.518 L60.172,71.809 L50.48,71.809 L50.48,36.063 C50.48,33.746 49.095,32.721 47.016,32.721 C44.941,32.721 43.036,34.005 40.789,35.634 L40.789,71.809 L31.095,71.809 L31.095,9.917 Z" id="path-13"></path>
        <path d="M3.806,0.387 L0.242,3.917 L0.242,65.809 L3.806,69.339 L13.5,69.339 L17.064,65.809 L17.064,31.391 C17.951,30.746 18.791,30.251 19.627,30.063 L19.627,65.809 L23.191,69.339 L32.883,69.339 L36.447,65.809 L36.447,28.518 C36.447,24.514 35.307,21.354 33.457,19.151 C31.422,16.728 28.492,15.303 24.748,15.303 C21.443,15.303 19.139,15.848 17.064,16.917 L17.064,3.917 L13.5,0.387 L3.806,0.387 Z" id="path-15"></path>
        <path d="M0.917,94.559 L91.771,94.559 L91.771,0.147 L0.917,0.147 L0.917,94.559 Z M31.806,9.917 L41.5,9.917 L41.5,29.976 C45.048,26.888 47.121,24.833 52.748,24.833 C57.857,24.833 60.883,28.52 60.883,34.518 L60.883,71.809 L51.191,71.809 L51.191,36.063 C51.191,33.746 49.806,32.721 47.727,32.721 C45.654,32.721 43.747,34.005 41.5,35.634 L41.5,71.809 L31.806,71.809 L31.806,9.917 Z" id="path-17"></path>
        <path d="M0.578,0.768 L0.578,62.659 L10.272,62.659 L10.272,26.485 C12.52,24.856 14.426,23.571 16.5,23.571 C18.579,23.571 19.962,24.597 19.962,26.913 L19.962,62.659 L29.656,62.659 L29.656,25.369 C29.656,19.37 26.629,15.684 21.52,15.684 C15.896,15.684 13.817,17.739 10.272,20.827 L10.272,0.768 L0.578,0.768 Z" id="path-19"></path>
        <path d="M27.945,5.654 C24.914,2.139 21.366,0.683 17.211,0.683 C6.309,0.683 2.156,4.967 2.156,17.657 C2.156,28.456 3.539,30.857 8.388,34.201 C5.789,35.657 2.5,38.49 2.5,41.659 C2.5,44.66 4.318,46.458 6.915,47.486 L6.915,47.658 C3.539,48.427 0.595,51.26 0.595,54.861 C0.595,59.662 6.309,62.232 16.001,62.232 C28.463,62.232 35.907,59.144 35.907,51.26 C35.907,34.976 10.981,44.23 10.981,37.972 C10.981,36.855 11.85,36.086 12.883,35.829 L16.001,35.829 C25.864,35.829 30.713,31.369 30.713,17.314 C30.713,15.426 30.369,12.426 29.675,10.027 C31.057,8.912 32.617,8.57 34.346,8.57 C34.867,8.57 35.384,8.57 35.907,8.656 L35.907,0.683 C31.837,0.683 30.54,1.884 27.945,5.654 Z M11.327,18.256 C11.327,10.456 13.06,8.57 16.174,8.57 C19.981,8.57 21.019,10.456 21.019,18.256 C21.019,26.058 19.981,27.941 16.174,27.941 C13.06,27.941 11.327,26.058 11.327,18.256 Z M10.81,51.945 C10.81,49.546 12.539,48.516 19.028,48.516 C25.521,48.516 27.251,49.546 27.251,51.945 C27.251,54.345 25.521,55.373 19.028,55.373 C12.539,55.373 10.81,54.345 10.81,51.945 Z" id="path-21"></path>
        <path d="M1.433,15.087 L11.125,15.087 C11.296,11.14 12.251,8.57 16.664,8.57 C19.866,8.57 21.425,10.627 21.425,14.487 L21.425,17.229 C7.492,22.456 0.739,28.029 0.739,38.142 C0.739,44.06 4.031,48.516 10.607,48.516 C15.279,48.516 18.307,46.973 21.943,44.06 C22.031,45.175 22.375,46.371 22.463,47.658 L31.72,47.658 C31.464,46.116 31.114,44.229 31.114,42.773 L31.114,13.2 C31.114,4.797 26.013,0.683 17.01,0.683 C7.922,0.683 1.953,5.741 1.433,15.087 Z M10.434,36.431 C10.434,32.402 12.596,29.229 21.425,24.256 L21.425,36.345 C19.781,38.655 17.614,40.63 14.936,40.63 C11.99,40.63 10.434,39.43 10.434,36.431 Z" id="path-23"></path>
        <path d="M19.517,4 C18.131,1.484 17.093,0.342 13.859,0.342 C10.806,0.342 9.42,1.714 6.709,4 L6.709,0.915 L0.591,0.915 L0.591,31.659 L7.054,31.659 L7.054,7.544 C8.554,6.457 9.828,5.6 11.208,5.6 C12.479,5.6 13.46,6.288 13.46,7.829 L13.46,31.659 L19.923,31.659 L19.923,7.544 C21.365,6.457 22.631,5.6 24.017,5.6 C25.287,5.6 26.324,6.288 26.324,7.829 L26.324,31.659 L32.787,31.659 L32.787,6.798 C32.787,2.798 30.767,0.342 26.728,0.342 C24.364,0.342 22.631,1.027 19.517,4 Z" id="path-25"></path>
        <path d="M6.469,4.898 C3.248,7.877 1.191,12.206 0.874,17.893 L4.433,21.618 L12.848,21.618 C10.074,23.198 7.792,24.878 5.978,26.712 C2.11,30.623 0.175,35.234 0.175,41.142 C0.175,45.227 1.468,48.723 3.808,51.182 C6.041,53.529 9.269,55.048 13.607,55.048 C17.594,55.048 20.599,54.149 23.581,52.36 L25.668,54.182 L34.837,53.661 L38.148,49.555 C37.938,48.314 37.678,46.897 37.678,45.773 L37.678,16.2 C37.678,10.822 35.909,6.904 32.906,4.24 C29.962,1.627 25.654,0.153 20.01,0.153 C14.362,0.153 9.761,1.854 6.469,4.898 Z M17.686,18.238 C17.736,17.084 17.678,16.015 18.234,15.361 C18.518,15.026 19.072,15.101 20.44,15.259 C20.844,15.76 20.861,16.561 20.861,17.821 C19.019,18.562 17.309,19.318 15.73,20.095 L17.686,18.238 Z M18.497,35.799 C19.112,35.118 19.892,34.425 20.861,33.697 L20.861,38.201 C20.09,39.198 19.174,40.1 17.936,40.1 C16.998,38.146 17.393,37.02 18.497,35.799 Z" id="path-27"></path>
        <path d="M0.851,94.268 L93.609,94.268 L93.609,0.147 L0.851,0.147 M48.01,23.683 C57.013,23.683 62.114,27.797 62.114,36.2 L62.114,65.773 C62.114,67.229 62.464,69.116 62.72,70.658 L53.463,70.658 C53.375,69.371 53.031,68.175 52.943,67.06 C49.307,69.973 46.279,71.516 41.607,71.516 C35.031,71.516 31.739,67.06 31.739,61.142 C31.739,51.029 38.492,45.456 52.425,40.229 L52.425,37.487 C52.425,33.627 50.866,31.57 47.664,31.57 C43.251,31.57 42.296,34.14 42.125,38.087 L32.433,38.087 C32.953,28.741 38.922,23.683 48.01,23.683 M41.434,59.431 C41.434,62.43 42.99,63.63 45.936,63.63 C48.614,63.63 50.781,61.655 52.425,59.345 L52.425,47.256 C43.596,52.229 41.434,55.402 41.434,59.431" id="path-29"></path>
        <path d="M5.133,5.664 C1.982,9.252 0.481,14.478 0.481,20.828 L0.481,34.37 C0.481,40.722 1.982,45.948 5.133,49.536 C8.099,52.912 12.55,55.047 19.106,55.047 C25.517,55.047 29.918,53.006 32.885,49.762 C36.046,46.307 37.618,41.275 37.724,35.118 L34.709,32.389 L37.725,29.403 L37.725,20.828 C37.725,14.478 36.226,9.251 33.076,5.663 C30.112,2.288 25.662,0.154 19.106,0.154 C12.55,0.154 8.099,2.288 5.133,5.664 Z M23.768,32.932 L20.908,36.086 C20.908,37.706 20.791,38.95 19.106,40.098 C18.67,40.098 18.23,40.092 17.976,39.735 C17.417,38.949 17.301,37.706 17.301,36.086 L17.301,32.932 L23.768,32.932 Z" id="path-31"></path>
        <path d="M0.156,94.268 L92.049,94.268 L92.049,0.15 L0.156,0.15 L0.156,94.268 Z M31.044,54.37 L31.044,40.828 C31.044,30.712 35.03,23.684 46.106,23.684 C57.183,23.684 61.16,30.712 61.16,40.828 L61.16,49.403 L40.736,49.403 L40.736,56.086 C40.736,61.4 42.642,63.629 46.106,63.629 C49.565,63.629 51.471,61.4 51.471,56.086 L51.471,55.057 L61.16,55.057 C60.992,64.83 56.924,71.516 46.106,71.516 C35.03,71.516 31.044,64.488 31.044,54.37 Z M40.736,39.112 L40.736,41.512 L51.471,41.512 L51.471,39.112 C51.471,33.8 49.565,31.569 46.106,31.569 C42.642,31.569 40.736,33.8 40.736,39.112 Z" id="path-33"></path>
        <path d="M26.087,0.011 L22.594,2.838 L19.98,15.563 L17.285,2.818 L13.797,0.011 L3.934,0.011 L0.482,4.417 L10.617,43.639 C11.131,45.526 11.531,47.2 11.531,48.801 C11.531,50.24 11.531,51.46 10.887,52.209 C10.44,52.73 9.631,52.729 8.694,52.729 L6.356,52.729 L2.792,56.258 L2.792,64.149 L6.356,67.679 L10.423,67.679 C15.172,67.679 18.705,66.627 21.434,64.347 C23.954,62.241 25.872,58.986 27.124,53.929 L39.331,4.378 L35.868,0.011 L26.087,0.011 Z" id="path-35"></path>
        <path d="M0.046,92.411 L93.757,92.411 L93.757,0.006 L0.046,0.006 L0.046,92.411 Z M47.202,53.028 L53.087,23.542 L62.868,23.542 L50.663,73.089 C48.584,81.488 44.692,84.149 37.423,84.149 L33.356,84.149 L33.356,76.258 L35.694,76.258 C40.541,76.258 42.094,73.692 42.094,68.801 C42.094,66.918 41.665,64.944 41.059,62.719 L30.934,23.542 L40.797,23.542 L47.03,53.028 L47.202,53.028 Z" id="path-37"></path>
        <path d="M0.885,0.768 L0.885,62.659 L10.58,62.659 L10.58,26.485 C12.827,24.856 14.733,23.571 16.807,23.571 C18.886,23.571 20.271,24.597 20.271,26.913 L20.271,62.659 L29.963,62.659 L29.963,25.369 C29.963,19.37 26.937,15.684 21.828,15.684 C16.201,15.684 14.127,17.739 10.58,20.827 L10.58,0.768 L0.885,0.768 Z" id="path-39"></path>
        <path d="M23.087,0.542 L17.202,30.028 L17.03,30.028 L10.797,0.542 L0.934,0.542 L11.059,39.719 C11.665,41.944 12.094,43.918 12.094,45.801 C12.094,50.692 10.541,53.258 5.694,53.258 L3.356,53.258 L3.356,61.149 L7.423,61.149 C14.692,61.149 18.584,58.488 20.663,50.089 L32.868,0.542 L23.087,0.542 Z" id="path-41"></path>
        <path d="M5.008,5.664 C1.856,9.252 0.355,14.478 0.355,20.828 L0.355,34.37 C0.355,40.722 1.856,45.948 5.008,49.536 C7.972,52.912 12.424,55.047 18.98,55.047 C25.391,55.047 29.793,53.006 32.759,49.762 C35.92,46.307 37.492,41.275 37.598,35.118 L34.583,32.389 L37.599,29.403 L37.599,20.828 C37.599,14.478 36.099,9.251 32.95,5.663 C29.986,2.288 25.536,0.154 18.98,0.154 C12.424,0.154 7.973,2.288 5.008,5.664 Z M23.642,32.932 L20.782,36.086 C20.782,37.706 20.665,38.95 18.98,40.098 C18.544,40.098 18.104,40.093 17.849,39.736 C17.291,38.95 17.175,37.706 17.175,36.086 L17.175,32.932 L23.642,32.932 Z" id="path-43"></path>
        <path d="M0.03,94.268 L91.923,94.268 L91.923,0.15 L0.03,0.15 M30.918,54.37 L30.918,40.828 C30.918,30.712 34.903,23.684 45.98,23.684 C57.057,23.684 61.034,30.712 61.034,40.828 L61.034,49.403 L40.611,49.403 L40.611,56.086 C40.611,61.4 42.514,63.629 45.98,63.629 C49.44,63.629 51.345,61.4 51.345,56.086 L51.345,55.057 L61.034,55.057 C60.866,64.83 56.798,71.516 45.98,71.516 C34.903,71.516 30.918,64.488 30.918,54.37 M40.611,39.112 L40.611,41.512 L51.345,41.512 L51.345,39.112 C51.345,33.8 49.44,31.569 45.98,31.569 C42.514,31.569 40.611,33.8 40.611,39.112" id="path-45"></path>
        <path d="M0.044,17.828 L0.044,31.37 C0.044,41.488 4.03,48.516 15.106,48.516 C25.924,48.516 29.992,41.83 30.16,32.057 L20.471,32.057 L20.471,33.086 C20.471,38.4 18.565,40.629 15.106,40.629 C11.642,40.629 9.736,38.4 9.736,33.086 L9.736,26.403 L30.16,26.403 L30.16,17.828 C30.16,7.712 26.183,0.684 15.106,0.684 C4.03,0.684 0.044,7.712 0.044,17.828 Z M9.736,16.112 C9.736,10.8 11.642,8.569 15.106,8.569 C18.565,8.569 20.471,10.8 20.471,16.112 L20.471,18.512 L9.736,18.512 L9.736,16.112 Z" id="path-47"></path>
        <path d="M0.889,17.828 L0.889,31.37 C0.889,41.488 4.87,48.516 15.948,48.516 C26.766,48.516 30.831,41.83 31.002,32.057 L21.313,32.057 L21.313,33.086 C21.313,38.4 19.41,40.629 15.948,40.629 C12.484,40.629 10.578,38.4 10.578,33.086 L10.578,26.403 L31.002,26.403 L31.002,17.828 C31.002,7.712 27.022,0.684 15.948,0.684 C4.87,0.684 0.889,7.712 0.889,17.828 Z M10.578,16.112 C10.578,10.8 12.484,8.569 15.948,8.569 C19.41,8.569 21.313,10.8 21.313,16.112 L21.313,18.512 L10.578,18.512 L10.578,16.112 Z" id="path-49"></path>
        <path d="M3.842,4.891 C1.581,7.464 0.45,11.199 0.45,15.772 L0.45,24.801 C0.45,29.375 1.581,33.11 3.841,35.685 C6.008,38.152 9.242,39.762 14.052,39.762 C18.953,39.762 22.218,38.097 24.396,35.445 C26.557,32.812 27.658,28.949 27.658,24.003 L24.095,20.471 L17.632,20.471 L14.067,24.003 L14.039,25.944 L14.038,14.068 C14.065,14.463 14.067,14.917 14.067,15.429 L17.632,18.959 L24.095,18.959 L27.658,15.366 C27.577,10.89 26.408,7.256 24.141,4.754 C21.98,2.367 18.785,0.813 14.052,0.813 C9.243,0.813 6.008,2.424 3.842,4.891 Z" id="path-51"></path>
        <path d="M0.126,85.982 L81.982,85.982 L81.982,0.747 L0.126,0.747 M31.014,51.801 L31.014,42.772 C31.014,36.027 33.669,31.343 41.052,31.343 C48.323,31.343 50.975,35.858 51.095,42.429 L44.632,42.429 L44.632,41.628 C44.632,38.084 43.365,36.598 41.052,36.598 C38.744,36.598 37.474,38.084 37.474,41.628 L37.474,52.944 C37.474,56.488 38.744,57.972 41.052,57.972 C43.365,57.972 44.632,56.488 44.632,52.944 L44.632,51.003 L51.095,51.003 L51.095,51.801 C51.095,58.548 48.44,63.231 41.052,63.231 C33.669,63.231 31.014,58.548 31.014,51.801" id="path-53"></path>
        <path d="M3.963,4.89 C1.702,7.464 0.57,11.198 0.57,15.77 L0.57,24.801 C0.57,29.374 1.702,33.109 3.963,35.684 C6.129,38.152 9.363,39.762 14.172,39.762 C18.982,39.762 22.216,38.152 24.381,35.684 C26.642,33.109 27.773,29.374 27.773,24.801 L27.773,15.77 C27.773,11.198 26.641,7.464 24.381,4.89 C22.214,2.424 18.982,0.813 14.172,0.813 C9.363,0.813 6.129,2.424 3.963,4.89 Z" id="path-55"></path>
        <path d="M0.246,85.982 L82.097,85.982 L82.097,0.747 L0.246,0.747 M31.135,51.801 L31.135,42.77 C31.135,36.027 33.788,31.343 41.172,31.343 C48.555,31.343 51.209,36.027 51.209,42.77 L51.209,51.801 C51.209,58.546 48.555,63.231 41.172,63.231 C33.788,63.231 31.135,58.546 31.135,51.801 M37.594,41.628 L37.594,52.944 C37.594,56.487 38.863,57.972 41.172,57.972 C43.48,57.972 44.746,56.487 44.746,52.944 L44.746,41.628 C44.746,38.084 43.48,36.599 41.172,36.599 C38.863,36.599 37.594,38.084 37.594,41.628" id="path-57"></path>
        <path d="M23.111,2.885 C22.812,2.615 22.499,2.377 22.169,2.162 C20.885,1.333 19.285,0.812 16.859,0.812 C14.479,0.812 12.831,1.328 10.917,2.58 L9.709,1.384 L3.591,1.384 L0.028,4.915 L0.028,35.659 L3.591,39.189 L10.054,39.189 L13.257,36.017 L16.46,39.189 L22.923,39.189 L26.124,36.02 L29.324,39.189 L35.787,39.189 L39.351,35.659 L39.351,10.798 C39.351,7.689 38.399,5.281 36.826,3.606 C35.23,1.905 32.918,0.812 29.728,0.812 C27.458,0.812 25.578,1.158 23.111,2.885 Z" id="path-59"></path>
        <path d="M0.703,85.41 L75.666,85.41 L75.666,0.746 L0.703,0.746 L0.703,85.41 Z M57.728,31.342 C61.767,31.342 63.787,33.798 63.787,37.798 L63.787,62.659 L57.324,62.659 L57.324,38.829 C57.324,37.288 56.287,36.6 55.017,36.6 C53.631,36.6 52.365,37.457 50.923,38.544 L50.923,62.659 L44.46,62.659 L44.46,38.829 C44.46,37.288 43.479,36.6 42.208,36.6 C40.828,36.6 39.554,37.457 38.054,38.544 L38.054,62.659 L31.591,62.659 L31.591,31.915 L37.709,31.915 L37.709,35 C40.42,32.714 41.806,31.342 44.859,31.342 C48.093,31.342 49.131,32.484 50.517,35 C53.631,32.027 55.364,31.342 57.728,31.342 Z" id="path-61"></path>
        <path d="M0.014,11.772 L0.014,20.801 C0.014,27.548 2.669,32.231 10.052,32.231 C17.44,32.231 20.095,27.548 20.095,20.801 L20.095,20.003 L13.632,20.003 L13.632,21.944 C13.632,25.488 12.365,26.972 10.052,26.972 C7.744,26.972 6.474,25.488 6.474,21.944 L6.474,10.628 C6.474,7.084 7.744,5.598 10.052,5.598 C12.365,5.598 13.632,7.084 13.632,10.628 L13.632,11.429 L20.095,11.429 C19.975,4.858 17.323,0.343 10.052,0.343 C2.669,0.343 0.014,5.027 0.014,11.772 Z" id="path-63"></path>
        <path d="M0.135,11.77 L0.135,20.801 C0.135,27.546 2.788,32.231 10.172,32.231 C17.555,32.231 20.209,27.546 20.209,20.801 L20.209,11.77 C20.209,5.027 17.555,0.343 10.172,0.343 C2.788,0.343 0.135,5.027 0.135,11.77 Z M6.594,21.944 L6.594,10.628 C6.594,7.084 7.863,5.599 10.172,5.599 C12.48,5.599 13.746,7.084 13.746,10.628 L13.746,21.944 C13.746,25.487 12.48,26.972 10.172,26.972 C7.863,26.972 6.594,25.487 6.594,21.944 Z" id="path-65"></path>
    </defs>
    <g id="lehighvalley_logo" stroke="none" stroke-width="1" fill="none" fill-rule="evenodd">
        <g id="Group-3" transform="translate(27.000000, 23.000000)">
            <mask id="mask-2" fill="white">
                <use xlink:href="#path-1"></use>
            </mask>
            <g id="Clip-2"></g>
            <polygon id="Fill-1" fill="#FEFEFE" mask="url(#mask-2)" points="-7.992 63.284 45.882 63.284 45.882 -8.083 -7.992 -8.083"></polygon>
        </g>
        <g id="Group-6" transform="translate(0.000000, 3.000000)">
            <mask id="mask-4" fill="white">
                <use xlink:href="#path-3"></use>
            </mask>
            <g id="Clip-5"></g>
            <path d="M45.9482,78.5771 C31.8472,78.5771 23.7602,69.7531 23.7602,54.3701 L23.7602,40.8281 C23.7602,25.4461 31.8472,16.6231 45.9482,16.6231 C60.0452,16.6231 68.1302,25.4461 68.1302,40.8281 L68.1302,47.9971 L68.2562,47.9971 L68.0862,56.4621 C67.3922,70.5371 59.3802,78.5771 45.9482,78.5771" id="Fill-4" fill="#A92325" mask="url(#mask-4)"></path>
        </g>
        <g id="Group-9" transform="translate(427.000000, 26.000000)">
            <mask id="mask-6" fill="white">
                <use xlink:href="#path-5"></use>
            </mask>
            <g id="Clip-8"></g>
            <polygon id="Fill-7" fill="#FEFEFE" mask="url(#mask-6)" points="-10.961 60.284 42.915 60.284 42.915 -11.083 -10.961 -11.083"></polygon>
        </g>
        <path d="M103.8411,8.2378 L100.2771,11.7688 L100.2771,20.5118 L103.8261,24.0278 L100.2771,27.5418 L100.2771,73.6608 L103.8411,77.1908 L113.5301,77.1908 L117.0941,73.6608 L117.0941,27.5418 L113.5461,24.0278 L117.0941,20.5118 L117.0941,11.7688 L113.5301,8.2378 L103.8411,8.2378 Z M103.8411,24.0118 L113.5301,24.0118 L113.5461,24.0278 L113.5301,24.0418 L103.8411,24.0418 L103.8261,24.0278 L103.8411,24.0118 Z" id="Fill-10" fill="#FEFEFE"></path>
        <path d="M96.712,80.719 L120.658,80.719 L120.658,4.708 L96.712,4.708 L96.712,80.719 Z M103.841,20.511 L113.53,20.511 L113.53,11.768 L103.841,11.768 L103.841,20.511 Z M103.841,73.661 L113.53,73.661 L113.53,27.542 L103.841,27.542 L103.841,73.661 Z" id="Fill-11" fill="#A92325"></path>
        <g id="Group-14" transform="translate(114.000000, 23.000000)">
            <mask id="mask-8" fill="white">
                <use xlink:href="#path-7"></use>
            </mask>
            <g id="Clip-13"></g>
            <polygon id="Fill-12" fill="#FEFEFE" mask="url(#mask-8)" points="-8.285 77 50.788 77 50.788 -8.084 -8.285 -8.084"></polygon>
        </g>
        <g id="Group-17" transform="translate(86.000000, 3.000000)">
            <mask id="mask-10" fill="white">
                <use xlink:href="#path-9"></use>
            </mask>
            <g id="Clip-16"></g>
            <path d="M47.0015,92.291 C26.6625,92.291 24.4665,82.199 24.4665,77.859 C24.4665,74.842 25.5105,71.967 27.2995,69.583 C26.6905,68.075 26.3725,66.423 26.3725,64.66 C26.3725,61.566 27.5525,58.96 29.1065,56.868 C26.5675,52.821 26.0275,47.919 26.0275,40.658 C26.0275,30.34 28.3275,16.624 48.2105,16.624 C51.8765,16.624 55.2115,17.43 58.1895,19.03 C60.3195,17.549 63.0375,16.624 66.9075,16.624 L74.0355,16.624 L74.0355,39.968 L68.8115,39.119 C68.8325,39.555 68.8415,39.956 68.8415,40.314 C68.8415,44.134 68.8415,52.667 64.0315,58.827 C69.4275,60.999 74.0355,65.361 74.0355,74.261 C74.0355,89.949 57.0985,92.291 47.0015,92.291" id="Fill-15" fill="#A92325" mask="url(#mask-10)"></path>
        </g>
        <g id="Group-20" transform="translate(153.000000, 9.000000)">
            <mask id="mask-12" fill="white">
                <use xlink:href="#path-11"></use>
            </mask>
            <g id="Clip-19"></g>
            <polygon id="Fill-18" fill="#FEFEFE" mask="url(#mask-12)" points="-7.786 77.576 45.052 77.576 45.052 -7.851 -7.786 -7.851"></polygon>
        </g>
        <g id="Group-23" transform="translate(126.000000, 3.000000)">
            <mask id="mask-14" fill="white">
                <use xlink:href="#path-13"></use>
            </mask>
            <g id="Clip-22"></g>
            <path d="M67.2998,78.8691 L23.9668,78.8691 L23.9668,2.8561 L47.9168,2.8561 L47.9168,18.1001 C49.1568,17.8891 50.5208,17.7731 52.0368,17.7731 C61.1658,17.7731 67.2998,24.5021 67.2998,34.5191 L67.2998,78.8691 Z" id="Fill-21" fill="#A92325" mask="url(#mask-14)"></path>
        </g>
        <g id="Group-26" transform="translate(63.000000, 9.000000)">
            <mask id="mask-16" fill="white">
                <use xlink:href="#path-15"></use>
            </mask>
            <g id="Clip-25"></g>
            <polygon id="Fill-24" fill="#A92325" mask="url(#mask-16)" points="-8.075 77.576 44.763 77.576 44.763 -7.851 -8.075 -7.851"></polygon>
        </g>
        <g id="Group-29" transform="translate(35.000000, 3.000000)">
            <mask id="mask-18" fill="white">
                <use xlink:href="#path-17"></use>
            </mask>
            <g id="Clip-28"></g>
            <path d="M68.0112,78.8691 L24.6782,78.8691 L24.6782,2.8561 L48.6282,2.8561 L48.6282,18.1001 C49.8682,17.8891 51.2312,17.7731 52.7482,17.7731 C61.8772,17.7731 68.0112,24.5021 68.0112,34.5191 L68.0112,78.8691 Z" id="Fill-27" fill="#A92325" mask="url(#mask-18)"></path>
        </g>
        <g id="Group-32" transform="translate(67.000000, 11.000000)">
            <mask id="mask-20" fill="white">
                <use xlink:href="#path-19"></use>
            </mask>
            <g id="Clip-31"></g>
            <polygon id="Fill-30" fill="#FEFEFE" mask="url(#mask-20)" points="-11.302 74.427 41.536 74.427 41.536 -11 -11.302 -11"></polygon>
        </g>
        <path d="M103.841,20.512 L113.53,20.512 L113.53,11.769 L103.841,11.769 L103.841,20.512 Z M103.841,73.661 L113.53,73.661 L113.53,27.542 L103.841,27.542 L103.841,73.661 Z" id="Fill-33" fill="#FEFEFE"></path>
        <g id="Group-36" transform="translate(117.000000, 26.000000)">
            <mask id="mask-22" fill="white">
                <use xlink:href="#path-21"></use>
            </mask>
            <g id="Clip-35"></g>
            <polygon id="Fill-34" fill="#FEFEFE" mask="url(#mask-22)" points="-11.285 74 47.788 74 47.788 -11.084 -11.285 -11.084"></polygon>
        </g>
        <g id="Group-39" transform="translate(222.000000, 26.000000)">
            <mask id="mask-24" fill="white">
                <use xlink:href="#path-23"></use>
            </mask>
            <g id="Clip-38"></g>
            <polygon id="Fill-37" fill="#FEFEFE" mask="url(#mask-24)" points="-11.141 60.285 43.6 60.285 43.6 -11.085 -11.141 -11.085"></polygon>
        </g>
        <polygon id="Fill-40" fill="#FEFEFE" points="260.732 73.661 270.424 73.661 270.424 11.769 260.732 11.769"></polygon>
        <polygon id="Fill-41" fill="#FEFEFE" points="363.808 74.809 373.497 74.809 373.497 12.917 363.808 12.917"></polygon>
        <polygon id="Fill-42" fill="#FEFEFE" points="14.533 74.809 24.222 74.809 24.222 12.917 14.533 12.917"></polygon>
        <g id="Group-45" transform="translate(522.000000, 42.000000)">
            <mask id="mask-26" fill="white">
                <use xlink:href="#path-25"></use>
            </mask>
            <g id="Clip-44"></g>
            <polygon id="Fill-43" fill="#FEFEFE" mask="url(#mask-26)" points="-11.289 43.427 44.666 43.427 44.666 -11.425 -11.289 -11.425"></polygon>
        </g>
        <polygon id="Fill-46" fill="#FEFEFE" points="211.3182 24.0112 207.8232 26.8492 205.1622 40.0332 202.6162 26.8772 199.1152 24.0112 189.2502 24.0112 185.7852 28.3712 197.0362 74.4892 200.5002 77.1902 209.9332 77.1902 213.3972 74.4882 224.6452 28.3712 221.1812 24.0112"></polygon>
        <path d="M205.443,20.4814 L205.223,21.6024 L205.006,20.4814 L180.194,20.4814 L194.89,80.7194 L215.544,80.7194 L230.236,20.4814 L205.443,20.4814 Z M205.258,58.4014 L211.318,27.5424 L221.181,27.5424 L209.933,73.6584 L200.5,73.6584 L189.25,27.5424 L199.115,27.5424 L205.088,58.4014 L205.258,58.4014 Z" id="Fill-47" fill="#A92325"></path>
        <g id="Group-50" transform="translate(219.000000, 23.000000)">
            <mask id="mask-28" fill="white">
                <use xlink:href="#path-27"></use>
            </mask>
            <g id="Clip-49"></g>
            <polygon id="Fill-48" fill="#FEFEFE" mask="url(#mask-28)" points="-8.141 63.285 46.6 63.285 46.6 -8.085 -8.141 -8.085"></polygon>
        </g>
        <g id="Group-53" transform="translate(191.000000, 3.000000)">
            <mask id="mask-30" fill="white">
                <use xlink:href="#path-29"></use>
            </mask>
            <g id="Clip-52"></g>
            <path d="M41.6064,78.5771 C31.6004,78.5771 24.6104,71.4081 24.6104,61.1431 C24.6104,54.3491 26.9474,49.1911 30.6024,45.1481 L24.8994,45.1481 L25.3154,37.6981 C26.0284,24.8951 34.9374,16.6221 48.0104,16.6221 C61.1064,16.6221 69.2424,24.1231 69.2424,36.1991 L69.2424,65.7721 C69.2424,66.4801 69.4854,67.9191 69.6624,68.9681 L71.1184,77.7201 L48.0474,77.7201 C46.1474,78.2601 44.0234,78.5771 41.6064,78.5771" id="Fill-51" fill="#A92325" mask="url(#mask-30)"></path>
        </g>
        <polygon id="Fill-54" fill="#FEFEFE" points="260.7318 8.2378 257.1678 11.7688 257.1678 73.6608 260.7318 77.1908 270.4238 77.1908 273.9878 73.6608 273.9878 11.7688 270.4238 8.2378"></polygon>
        <path d="M253.605,80.719 L277.551,80.719 L277.551,4.708 L253.605,4.708 L253.605,80.719 Z M260.732,73.66 L270.424,73.66 L270.424,11.768 L260.732,11.768 L260.732,73.66 Z" id="Fill-55" fill="#A92325"></path>
        <polygon id="Fill-56" fill="#FEFEFE" points="277.6923 8.2378 274.1283 11.7688 274.1283 73.6608 277.6923 77.1908 287.3813 77.1908 290.9453 73.6608 290.9453 11.7688 287.3813 8.2378"></polygon>
        <path d="M270.563,80.719 L294.509,80.719 L294.509,4.708 L270.563,4.708 L270.563,80.719 Z M277.692,73.66 L287.381,73.66 L287.381,11.768 L277.692,11.768 L277.692,73.66 Z" id="Fill-57" fill="#A92325"></path>
        <g id="Group-60" transform="translate(290.000000, 23.000000)">
            <mask id="mask-32" fill="white">
                <use xlink:href="#path-31"></use>
            </mask>
            <g id="Clip-59"></g>
            <polygon id="Fill-58" fill="#FEFEFE" mask="url(#mask-32)" points="-7.835 63.284 46.041 63.284 46.041 -8.083 -7.835 -8.083"></polygon>
        </g>
        <g id="Group-63" transform="translate(263.000000, 3.000000)">
            <mask id="mask-34" fill="white">
                <use xlink:href="#path-33"></use>
            </mask>
            <g id="Clip-62"></g>
            <path d="M46.1071,78.5772 C32.0041,78.5772 23.9161,69.7532 23.9161,54.3702 L23.9161,40.8282 C23.9161,25.4462 32.0041,16.6232 46.1071,16.6232 C60.2031,16.6232 68.2891,25.4462 68.2891,40.8282 L68.2891,47.9972 L68.4111,47.9972 L68.2461,56.4622 C67.5551,70.5392 59.5421,78.5772 46.1071,78.5772 Z" id="Fill-61" fill="#A92325" mask="url(#mask-34)"></path>
        </g>
        <g id="Group-66" transform="translate(323.000000, 24.000000)">
            <mask id="mask-36" fill="white">
                <use xlink:href="#path-35"></use>
            </mask>
            <g id="Clip-65"></g>
            <polygon id="Fill-64" fill="#FEFEFE" mask="url(#mask-36)" points="-7.946 75.916 47.748 75.916 47.748 -8.226 -7.946 -8.226"></polygon>
        </g>
        <g id="Group-69" transform="translate(296.000000, 4.000000)">
            <mask id="mask-38" fill="white">
                <use xlink:href="#path-37"></use>
            </mask>
            <g id="Clip-68"></g>
            <path d="M37.4238,91.2092 L26.2268,91.2092 L26.2268,69.1992 L34.9608,69.1992 C34.9648,69.0772 34.9668,68.9442 34.9668,68.8022 C34.9668,67.6182 34.5678,65.9932 34.1768,64.5612 L21.7518,16.4812 L46.5888,16.4812 L46.9178,18.0412 L47.2278,16.4812 L71.9458,16.4812 L57.5878,74.7622 C54.8098,85.9842 48.4038,91.2092 37.4238,91.2092 Z" id="Fill-67" fill="#A92325" mask="url(#mask-38)"></path>
        </g>
        <polygon id="Fill-70" fill="#FEFEFE" points="363.8079 9.3871 360.2449 12.9171 360.2449 74.8091 363.8079 78.3391 373.4969 78.3391 377.0619 74.8091 377.0619 12.9171 373.4969 9.3871"></polygon>
        <path d="M356.68,81.87 L380.626,81.87 L380.626,5.857 L356.68,5.857 L356.68,81.87 Z M363.808,74.809 L373.497,74.809 L373.497,12.917 L363.808,12.917 L363.808,74.809 Z" id="Fill-71" fill="#A92325"></path>
        <polygon id="Fill-72" fill="#FEFEFE" points="14.5332 9.3871 10.9692 12.9171 10.9692 74.8091 14.5332 78.3391 24.2222 78.3391 27.7862 74.8091 27.7862 12.9171 24.2222 9.3871"></polygon>
        <path d="M7.405,81.87 L31.351,81.87 L31.351,5.857 L7.405,5.857 L7.405,81.87 Z M14.533,74.809 L24.222,74.809 L24.222,12.917 L14.533,12.917 L14.533,74.809 Z" id="Fill-73" fill="#A92325"></path>
        <path d="M380.1528,8.2378 L376.5898,11.7688 L376.5898,20.5118 L380.1378,24.0278 L376.5898,27.5418 L376.5898,73.6608 L380.1528,77.1908 L389.8448,77.1908 L393.4088,73.6608 L393.4088,27.5418 L389.8598,24.0278 L393.4088,20.5118 L393.4088,11.7688 L389.8448,8.2378 L380.1528,8.2378 Z M380.1528,24.0118 L389.8448,24.0118 L389.8598,24.0278 L389.8448,24.0418 L380.1528,24.0418 L380.1378,24.0278 L380.1528,24.0118 Z" id="Fill-74" fill="#FEFEFE"></path>
        <path d="M373.025,80.719 L396.973,80.719 L396.973,4.708 L373.025,4.708 L373.025,80.719 Z M380.153,20.511 L389.845,20.511 L389.845,11.768 L380.153,11.768 L380.153,20.511 Z M380.153,73.661 L389.845,73.661 L389.845,27.542 L380.153,27.542 L380.153,73.661 Z" id="Fill-75" fill="#A92325"></path>
        <polygon id="Fill-76" fill="#FEFEFE" points="415.2879 24.0112 411.7919 26.8492 409.1309 40.0332 406.5849 26.8772 403.0849 24.0112 393.2189 24.0112 389.7539 28.3712 401.0059 74.4892 404.4689 77.1902 413.9019 77.1902 417.3669 74.4892 428.6169 28.3712 425.1529 24.0112"></polygon>
        <path d="M409.4127,20.4814 L409.1927,21.6024 L408.9757,20.4814 L384.1637,20.4814 L398.8597,80.7194 L419.5137,80.7194 L434.2077,20.4814 L409.4127,20.4814 Z M409.2267,58.4014 L415.2877,27.5424 L425.1527,27.5424 L413.9017,73.6584 L404.4687,73.6584 L393.2187,27.5424 L403.0847,27.5424 L409.0577,58.4014 L409.2267,58.4014 Z" id="Fill-77" fill="#A92325"></path>
        <path d="M380.153,20.512 L389.845,20.512 L389.845,11.769 L380.153,11.769 L380.153,20.512 Z M380.153,73.661 L389.845,73.661 L389.845,27.542 L380.153,27.542 L380.153,73.661 Z" id="Fill-78" fill="#FEFEFE"></path>
        <g id="Group-81" transform="translate(156.000000, 11.000000)">
            <mask id="mask-40" fill="white">
                <use xlink:href="#path-39"></use>
            </mask>
            <g id="Clip-80"></g>
            <polygon id="Fill-79" fill="#FEFEFE" mask="url(#mask-40)" points="-10.995 74.427 41.843 74.427 41.843 -11 -10.995 -11"></polygon>
        </g>
        <g id="Group-84" transform="translate(326.000000, 27.000000)">
            <mask id="mask-42" fill="white">
                <use xlink:href="#path-41"></use>
            </mask>
            <g id="Clip-83"></g>
            <polygon id="Fill-82" fill="#FEFEFE" mask="url(#mask-42)" points="-10.946 72.916 44.748 72.916 44.748 -11.226 -10.946 -11.226"></polygon>
        </g>
        <polygon id="Fill-85" fill="#FEFEFE" points="462.9357 63.3871 459.3727 66.9171 459.3727 73.6571 462.9357 77.1881 469.7487 77.1881 473.3117 73.6571 473.3117 66.9171 469.7487 63.3871"></polygon>
        <path d="M455.81,80.717 L476.877,80.717 L476.877,59.857 L455.81,59.857 L455.81,80.717 Z M462.936,73.657 L469.749,73.657 L469.749,66.917 L462.936,66.917 L462.936,73.657 Z" id="Fill-86" fill="#A92325"></path>
        <g id="Group-89" transform="translate(424.000000, 23.000000)">
            <mask id="mask-44" fill="white">
                <use xlink:href="#path-43"></use>
            </mask>
            <g id="Clip-88"></g>
            <polygon id="Fill-87" fill="#FEFEFE" mask="url(#mask-44)" points="-7.961 63.284 45.915 63.284 45.915 -8.083 -7.961 -8.083"></polygon>
        </g>
        <g id="Group-92" transform="translate(397.000000, 3.000000)">
            <mask id="mask-46" fill="white">
                <use xlink:href="#path-45"></use>
            </mask>
            <g id="Clip-91"></g>
            <path d="M45.981,78.5771 C31.879,78.5771 23.791,69.7531 23.791,54.3701 L23.791,40.8281 C23.791,25.4461 31.879,16.6231 45.981,16.6231 C60.078,16.6231 68.164,25.4461 68.164,40.8281 L68.164,47.9971 L68.287,47.9971 L68.121,56.4621 C67.429,70.5391 59.417,78.5771 45.981,78.5771" id="Fill-90" fill="#A92325" mask="url(#mask-46)"></path>
        </g>
        <g id="Group-95" transform="translate(294.000000, 26.000000)">
            <mask id="mask-48" fill="white">
                <use xlink:href="#path-47"></use>
            </mask>
            <g id="Clip-94"></g>
            <polygon id="Fill-93" fill="#FEFEFE" mask="url(#mask-48)" points="-11.835 60.284 42.041 60.284 42.041 -11.083 -11.835 -11.083"></polygon>
        </g>
        <g id="Group-98" transform="translate(30.000000, 26.000000)">
            <mask id="mask-50" fill="white">
                <use xlink:href="#path-49"></use>
            </mask>
            <g id="Clip-97"></g>
            <polygon id="Fill-96" fill="#FEFEFE" mask="url(#mask-50)" points="-10.992 60.284 42.882 60.284 42.882 -11.083 -10.992 -11.083"></polygon>
        </g>
        <polygon id="Fill-99" fill="#FEFEFE" points="277.692 73.661 287.381 73.661 287.381 11.769 277.692 11.769"></polygon>
        <g id="Group-102" transform="translate(470.000000, 38.000000)">
            <mask id="mask-52" fill="white">
                <use xlink:href="#path-51"></use>
            </mask>
            <g id="Clip-101"></g>
            <polygon id="Fill-100" fill="#FEFEFE" mask="url(#mask-52)" points="-7.866 47.999 35.974 47.999 35.974 -7.425 -7.866 -7.425"></polygon>
        </g>
        <g id="Group-105" transform="translate(443.000000, 11.000000)">
            <mask id="mask-54" fill="white">
                <use xlink:href="#path-53"></use>
            </mask>
            <g id="Clip-104"></g>
            <path d="M41.0532,70.292 C30.4642,70.292 23.8862,63.206 23.8862,51.802 L23.8862,42.773 C23.8862,31.367 30.4642,24.283 41.0532,24.283 C51.5982,24.283 58.0162,31.018 58.2212,42.302 L58.3522,49.489 L58.2222,49.489 L58.2222,51.802 C58.2222,63.206 51.6432,70.292 41.0532,70.292" id="Fill-103" fill="#A92325" mask="url(#mask-54)"></path>
        </g>
        <g id="Group-108" transform="translate(494.000000, 38.000000)">
            <mask id="mask-56" fill="white">
                <use xlink:href="#path-55"></use>
            </mask>
            <g id="Clip-107"></g>
            <polygon id="Fill-106" fill="#FEFEFE" mask="url(#mask-56)" points="-7.747 48 36.089 48 36.089 -7.424 -7.747 -7.424"></polygon>
        </g>
        <g id="Group-111" transform="translate(467.000000, 11.000000)">
            <mask id="mask-58" fill="white">
                <use xlink:href="#path-57"></use>
            </mask>
            <g id="Clip-110"></g>
            <path d="M41.1733,70.292 C30.5843,70.292 24.0063,63.206 24.0063,51.802 L24.0063,42.771 C24.0063,31.367 30.5843,24.283 41.1733,24.283 C51.7603,24.283 58.3373,31.367 58.3373,42.771 L58.3373,51.802 C58.3373,63.206 51.7603,70.292 41.1733,70.292" id="Fill-109" fill="#A92325" mask="url(#mask-58)"></path>
        </g>
        <g id="Group-114" transform="translate(519.000000, 38.000000)">
            <mask id="mask-60" fill="white">
                <use xlink:href="#path-59"></use>
            </mask>
            <g id="Clip-113"></g>
            <polygon id="Fill-112" fill="#FEFEFE" mask="url(#mask-60)" points="-8.289 47.427 47.666 47.427 47.666 -7.425 -8.289 -7.425"></polygon>
        </g>
        <g id="Group-117" transform="translate(491.000000, 11.000000)">
            <mask id="mask-62" fill="white">
                <use xlink:href="#path-61"></use>
            </mask>
            <g id="Clip-116"></g>
            <path d="M70.9146,69.7197 L24.4636,69.7197 L24.4636,24.8537 L40.6966,24.8537 C41.9186,24.4947 43.2886,24.2817 44.8586,24.2817 C47.5266,24.2817 49.6076,24.8297 51.2736,25.7097 C53.1576,24.7987 55.2406,24.2817 57.7276,24.2817 C65.6146,24.2817 70.9146,29.7137 70.9146,37.7987 L70.9146,69.7197 Z" id="Fill-115" fill="#A92325" mask="url(#mask-62)"></path>
        </g>
        <polygon id="Fill-118" fill="#FEFEFE" points="211.3182 27.5419 205.2572 58.4009 205.0882 58.4009 199.1152 27.5419 189.2502 27.5419 200.5002 73.6589 209.9332 73.6589 221.1812 27.5419"></polygon>
        <polygon id="Fill-119" fill="#FEFEFE" points="415.2879 27.5419 409.2269 58.4009 409.0569 58.4009 403.0849 27.5419 393.2189 27.5419 404.4689 73.6589 413.9019 73.6589 425.1529 27.5419"></polygon>
        <polygon id="Fill-120" fill="#FEFEFE" points="462.936 73.657 469.749 73.657 469.749 66.917 462.936 66.917"></polygon>
        <g id="Group-123" transform="translate(474.000000, 42.000000)">
            <mask id="mask-64" fill="white">
                <use xlink:href="#path-63"></use>
            </mask>
            <g id="Clip-122"></g>
            <polygon id="Fill-121" fill="#FEFEFE" mask="url(#mask-64)" points="-11.866 43.999 31.974 43.999 31.974 -11.425 -11.866 -11.425"></polygon>
        </g>
        <g id="Group-126" transform="translate(498.000000, 42.000000)">
            <mask id="mask-66" fill="white">
                <use xlink:href="#path-65"></use>
            </mask>
            <g id="Clip-125"></g>
            <polygon id="Fill-124" fill="#FEFEFE" mask="url(#mask-66)" points="-11.747 44 32.089 44 32.089 -11.424 -11.747 -11.424"></polygon>
        </g>
    </g>
</svg>